HIERARCHY
ROOT Hips
{
  OFFSET 57.8838 95.319 338.509
  CHANNELS 6 Xposition Yposition Zposition Zrotation Xrotation Yrotation
  JOINT LeftUpLeg
  {
    OFFSET 8.64259 1.95398 -2.38835
    CHANNELS 3 Zrotation Xrotation Yrotation
    JOINT LeftLeg
    {
      OFFSET 43.7702 0 0
      CHANNELS 3 Zrotation Xrotation Yrotation
      JOINT LeftFoot
      {
        OFFSET 40.6238 0 0
        CHANNELS 3 Zrotation Xrotation Yrotation
        JOINT LeftToeBase
        {
          OFFSET 12.7242 0 0
          CHANNELS 3 Zrotation Xrotation Yrotation
          End Site
          {
            OFFSET 0 0 0
          }
        }
      }
    }
  }
  JOINT RightUpLeg
  {
    OFFSET -8.2249 1.95398 -2.59336
    CHANNELS 3 Zrotation Xrotation Yrotation
    JOINT RightLeg
    {
      OFFSET 43.5653 0 0
      CHANNELS 3 Zrotation Xrotation Yrotation
      JOINT RightFoot
      {
        OFFSET 40.6238 0 0
        CHANNELS 3 Zrotation Xrotation Yrotation
        JOINT RightToeBase
        {
          OFFSET 12.7242 0 0
          CHANNELS 3 Zrotation Xrotation Yrotation
          End Site
          {
            OFFSET 0 0 0
          }
        }
      }
    }
  }
  JOINT Spine
  {
    OFFSET 0.165834 0.87714 6.61349
    CHANNELS 3 Zrotation Xrotation Yrotation
    JOINT Spine1
    {
      OFFSET 7.38963 1.71661e-005 0
      CHANNELS 3 Zrotation Xrotation Yrotation
      JOINT Spine2
      {
        OFFSET 11.9445 1.14441e-005 0
        CHANNELS 3 Zrotation Xrotation Yrotation
        JOINT Spine3
        {
          OFFSET 14.7254 4.19617e-005 0
          CHANNELS 3 Zrotation Xrotation Yrotation
          JOINT Spine4
          {
            OFFSET 10.9679 0 0
            CHANNELS 3 Zrotation Xrotation Yrotation
            JOINT RightShoulder
            {
              OFFSET 2.46616 -1.6653 3.69651
              CHANNELS 3 Zrotation Xrotation Yrotation
              JOINT RightArm
              {
                OFFSET 13.0012 0 0
                CHANNELS 3 Zrotation Xrotation Yrotation
                JOINT RightForeArm
                {
                  OFFSET 28.7848 1.62311e-005 0
                  CHANNELS 3 Zrotation Xrotation Yrotation
                  JOINT RightHand
                  {
                    OFFSET 26.5688 1.62095e-005 0
                    CHANNELS 3 Zrotation Xrotation Yrotation
                    End Site
                    {
                      OFFSET 0 0 0
                    }
                  }
                }
              }
            }
            JOINT LeftShoulder
            {
              OFFSET 2.38034 -1.29275 -3.7523
              CHANNELS 3 Zrotation Xrotation Yrotation
              JOINT LeftArm
              {
                OFFSET 16.3182 6.07031e-005 0
                CHANNELS 3 Zrotation Xrotation Yrotation
                JOINT LeftForeArm
                {
                  OFFSET 27.0901 0 0
                  CHANNELS 3 Zrotation Xrotation Yrotation
                  JOINT LeftHand
                  {
                    OFFSET 24.5451 1.51738e-005 0
                    CHANNELS 3 Zrotation Xrotation Yrotation
                    End Site
                    {
                      OFFSET 0 0 0
                    }
                  }
                }
              }
            }
            JOINT Neck
            {
              OFFSET 5.0226 -0.0266342 0
              CHANNELS 3 Zrotation Xrotation Yrotation
              JOINT Head
              {
                OFFSET 6.69364 2.86102e-005 0
                CHANNELS 3 Zrotation Xrotation Yrotation
                End Site
                {
                  OFFSET 0 0 0
                }
              }
            }
          }
        }
      }
    }
  }
}
MOTION
Frames:	9
Frame Time:	0.0416667
144.265 96.947 -143.106 107.469 46.6335 79.7487 -178.698 11.4295 88.7852 -20.2178 16.7088 -0.0347021 55.542 -6.24958 13.4308 24.3641 -1.879 0.667521 171.007 -13.907 89.9867 -32.2255 -13.4287 -1.33412 60.1498 2.55139 8.37575 42.7653 -18.9969 -1.67551 0.563576 7.74277 -90.069 11.3906 1.08926 -0.247556 -0.279917 1.0773 -0.295266 -22.8188 1.11328 0.0913029 -2.80613 1.11331 0.0912983 97.1867 -51.3232 -89.6033 27.7874 -4.87546 -9.98458 1.29256 -3.50938 -25.1545 -14.3948 -0.352126 -2.30746 -78.699 -55.8494 95.8886 -27.6947 -37.7449 -10.7733 9.07059 75.4607 0.000536421 -7.71154 0.289854 -6.62872 -10.3344 -0.282986 -5.3553 -25.4125 -1.4709 6.98584 
145.437 95.7241 -145.122 106.493 46.445 78.9991 -178.294 14.4754 87.0352 -27.6494 13.1974 -0.688625 58.1039 -2.42662 12.4897 29.4121 0.269627 -0.171819 170.377 -0.0151556 90.0055 -53.2234 -11.1142 -1.33604 58.6549 5.25972 8.76719 34.2572 -8.28452 -9.39635 0.589369 7.7422 -89.7639 11.3898 1.28303 0.342388 -0.280518 1.29687 0.285565 -22.8197 1.12081 0.712203 -2.80702 1.1208 0.712198 97.7475 -51.0526 -88.7704 30.5785 -1.88772 -8.74908 1.3925 -6.68405 -18.4784 -11.7583 -0.499901 -0.297294 -79.8421 -55.4055 94.2519 -29.7398 -32.2256 -14.7033 6.93533 75.6091 0.000541833 -0.980596 0.166006 -11.8694 -9.58616 0.0895245 -5.58325 -25.9392 -1.28581 7.93903 
149.155 96.3752 -150.406 108.354 46.9698 77.2837 -177.167 9.43754 86.3563 -28.8267 14.0437 -0.91461 61.155 0.580037 13.2706 32.3286 1.44059 -0.111876 168.774 9.86898 86.9565 -64.4567 -9.22877 -0.966597 56.6103 7.13655 6.60846 30.8301 -2.84319 -10.4043 0.291132 8.00213 -89.648 10.8668 0.742279 0.629142 -0.804117 0.769261 0.595859 -23.3389 0.518891 0.823139 -3.32621 0.518888 0.823127 97.3267 -51.1217 -89.4084 32.1666 -0.747173 -8.23131 2.58145 -8.34654 -12.4116 -10.734 -0.522489 0.50952 -80.0849 -55.1294 93.894 -30.1293 -24.7396 -19.8537 1.25067 66.8467 0.000342491 1.25385 -0.212358 -13.7153 -8.48162 1.31206 -4.86745 -25.8787 -0.567449 10.4331 
152.912 97.2545 -154.877 108.737 50.1307 78.1567 -176.932 5.8795 87.5541 -28.5776 16.7379 0.224654 62.1221 2.34745 13.7575 35.1158 2.56837 0.488959 168.1 16.3274 90.9041 -58.1137 -8.2615 1.02443 59.4114 3.3253 6.91301 31.4374 -3.75871 -8.11304 -0.0520702 8.1033 -89.8276 10.6672 -0.0242572 0.345026 -1.00381 -0.00900802 0.345745 -23.5386 -0.12683 0.321783 -3.526 -0.126811 0.321783 97.2646 -51.5197 -89.466 32.3737 0.00732768 -6.75734 3.00039 -8.53348 -10.6761 -10.4642 -0.51506 0.566689 -80.4903 -53.3617 93.2302 -33.108 -18.9812 -26.4811 -0.984164 61.6527 -0.00287942 4.79047 -0.599989 -13.3987 -9.18263 1.30723 -4.77318 -26.6706 -0.730027 10.6384 
156.661 98.0534 -158.98 107.529 53.7115 78.5298 -177.038 2.06909 87.2957 -25.2209 18.4713 0.848476 62.0974 3.73211 13.2838 37.8544 3.68684 0.521432 169.908 18.2268 91.6367 -37.5745 -3.47694 2.32666 60.9564 3.29865 11.1569 32.4207 -5.20528 -6.84685 -0.424635 8.04832 -89.851 10.7786 -0.776759 0.367902 -0.892139 -0.759827 0.401738 -23.4292 -0.851417 0.117434 -3.41655 -0.851431 0.117429 97.2984 -51.6021 -89.4066 32.9579 1.02979 -5.48139 2.80616 -9.00869 -10.9896 -10.3513 -0.514227 0.632306 -80.4019 -51.7564 93.2827 -32.4611 -13.5276 -29.8436 2.71118 56.8088 -8.20535 4.79098 -0.698206 -13.9769 -9.20002 1.2392 -5.07058 -26.6229 -0.74327 10.4852 
160.708 98.6274 -163.242 107.381 55.6357 77.0428 -176.746 -3.26509 86.9453 -19.9466 20.3973 0.900876 60.463 4.28729 13.0024 42.5788 5.65423 0.876011 174.296 15.7138 90.7779 -19.4213 -1.1091 0.437663 64.3712 2.25087 15.1096 31.1928 -3.37821 -7.23002 -0.461482 7.95057 -89.7933 10.9744 -0.822991 0.489429 -0.6964 -0.800622 0.525159 -23.2334 -0.932023 0.219445 -3.22078 -0.93203 0.219442 97.5764 -51.7052 -88.9739 33.4604 2.11328 -4.48414 2.71746 -7.81112 -11.5684 -9.8313 -0.519525 1.01004 -80.2221 -51.0354 93.5162 -31.2109 -10.2018 -31.3969 5.68538 53.2228 -14.824 6.3234 -0.909135 -15.1258 -10.1785 0.619698 -4.58781 -26.6603 -1.21308 9.45821 
165.018 97.827 -167.858 108.951 56.5295 74.1263 -177.796 -7.20377 86.004 -22.4362 20.9211 2.06045 59.7572 5.24409 13.8795 49.7333 9.01025 3.33379 174.291 14.9609 89.2365 -20.3696 -8.90038 0.574923 59.4857 6.79394 7.58344 25.822 4.21043 -2.04649 -0.395429 7.84254 -89.8833 11.1892 -0.732746 0.304099 -0.481592 -0.718659 0.336056 -23.0183 -0.790261 0.0698104 -3.00567 -0.790276 0.0698027 97.7023 -51.5524 -88.7959 32.7505 1.76267 -5.02538 2.75113 -8.82145 -10.9296 -9.77169 -0.51517 0.998005 -79.7525 -53.3525 94.3076 -29.5736 -10.3868 -29.8006 7.1242 55.0599 -17.1411 6.29319 -0.870179 -14.628 -10.8607 0.333919 -3.14449 -27.1157 -1.62854 9.39867 
168.935 97.2149 -171.446 110.183 58.8783 73.6329 -178.922 -2.97969 86.7815 -35.8327 18.4522 3.74899 58.9736 5.08713 9.53613 54.0938 11.9052 8.04659 173.587 15.3578 90.3269 -28.0356 -8.61001 1.05183 62.1702 5.47053 5.0831 23.4899 6.86901 1.1412 -0.41433 7.75281 -90.1952 11.3672 -0.915453 -0.296897 -0.303428 -0.927627 -0.256321 -22.8403 -0.783903 -0.558309 -2.82768 -0.783905 -0.558315 97.2509 -52.0433 -89.4374 31.142 1.32846 -6.14433 2.17423 -8.44417 -13.3426 -9.89195 -0.499278 0.722365 -80.7848 -53.1187 92.788 -32.8038 -14.3279 -26.2959 3.9456 60.6557 -8.78648 5.13784 -0.808247 -15.2724 -11.6867 -0.248918 -4.12699 -25.4658 -2.16863 9.90838 
172.246 96.8347 -174.082 110.354 61.3245 73.8687 -178.433 7.62462 88.0637 -53.5523 16.3419 4.37369 55.4139 -0.996402 3.25578 49.8137 10.3651 11.5197 172.405 14.9422 90.9843 -32.4036 -8.31092 2.24012 66.5914 2.44284 4.65026 24.3678 5.66846 1.51233 -0.297194 7.75196 -90.4441 11.366 -0.798468 -0.804314 -0.304919 -0.833085 -0.768409 -22.839 -0.519824 -1.00709 -2.82632 -0.519834 -1.00709 98.0282 -51.3702 -88.314 29.9427 -0.749359 -7.76003 1.5911 -5.69109 -18.1186 -9.28718 -0.34985 -0.799294 -80.7988 -53.0156 92.7617 -37.2447 -19.6587 -25.6024 0.0903557 67.1712 0.781489 2.90664 -0.405371 -13.5446 -8.81707 -1.58396 -5.83774 -26.6605 -3.18982 8.83535 
